<svg width="112" height="112" viewBox="0 0 112 112" fill="none" xmlns="http://www.w3.org/2000/svg">
<path fill-rule="evenodd" clip-rule="evenodd" d="M38.403 36.128C38.1475 35.9359 37.7814 35.9597 37.5434 36.2053C35.3195 38.5019 34.45 41.3007 34.4582 43.857C34.4631 45.3277 34.7571 46.6833 35.2262 47.796C35.9667 48.4182 36.5881 49.1094 37.054 49.8374C37.1374 49.8113 37.2218 49.787 37.3069 49.7644C37.018 48.8975 36.8442 47.7824 36.8442 46.5659C36.8442 43.8043 37.7396 41.5658 38.8441 41.5658C39.9488 41.5658 40.8443 43.8043 40.8443 46.5659C40.8443 47.7826 40.6703 48.8977 40.3813 49.7646C40.5936 49.8208 40.8011 49.8882 41.0033 49.9662C41.3277 49.4353 41.735 48.9227 42.2114 48.4409C42.2971 48.2321 42.3764 47.9995 42.4468 47.7428C42.7303 46.7075 42.8304 45.4013 42.6751 43.9945C42.3635 41.1734 41.0474 38.1158 38.403 36.128ZM38.8426 51.5657C36.634 51.5665 34.8439 53.357 34.8439 55.5658C34.8439 57.775 36.6347 59.5657 38.8438 59.5657C41.053 59.5657 42.8438 57.775 42.8438 55.5658C42.8438 53.3566 41.053 51.5657 38.8438 51.5657H38.8426ZM33.6014 49.0566C33.9647 49.8079 34.4054 50.4778 34.9101 51.035C34.4651 51.4216 34.0778 51.8728 33.7623 52.374C33.2568 51.9534 32.6055 51.5474 31.8598 51.2109C29.8462 50.3024 27.9071 50.2452 27.5291 51.0832C27.151 51.9213 28.4767 53.3372 30.4904 54.2459C31.3355 54.6273 32.1674 54.8585 32.8764 54.9367C32.8547 55.1434 32.8437 55.3534 32.8437 55.5658C32.8437 55.6929 32.8478 55.8191 32.8555 55.9444C32.5251 56.0366 32.1934 56.1559 31.8632 56.3003C31.8245 56.2988 31.7855 56.2968 31.7461 56.2946C30.6745 56.2322 29.405 55.9097 28.1214 55.3129C25.5481 54.1158 23.0715 51.8915 22.0331 48.7506C21.9327 48.4469 22.0723 48.1077 22.3813 47.9608C25.2681 46.5875 28.198 46.6581 30.6175 47.483C31.7648 47.8742 32.7752 48.4266 33.6014 49.0566ZM32.3056 58.3035C32.6944 58.2945 33.0767 58.256 33.4433 58.1832C33.6755 58.6615 33.9693 59.1043 34.3145 59.5011C33.7412 59.8534 33.1517 60.3594 32.6175 60.9881C31.1718 62.6894 30.6778 64.6449 31.5145 65.3559C32.3511 66.0669 34.2014 65.2641 35.6471 63.5626C36.2911 62.8049 36.7464 61.9967 36.9791 61.2703C37.0557 61.2954 37.133 61.3189 37.2108 61.3409C37.2132 61.8574 37.2905 62.3907 37.4229 62.9194C37.0964 63.9029 36.5039 64.9947 35.6704 66.0408C33.9019 68.2605 31.1574 70.1443 27.8603 70.415C27.5417 70.4411 27.2447 70.2257 27.1745 69.8908C26.5189 66.7619 27.2766 63.9309 28.6475 61.7732C29.6769 60.153 31.0185 58.9616 32.3056 58.3035ZM39.5047 62.9194C39.6233 62.446 39.6978 61.9687 39.7136 61.5031C40.0117 61.4598 40.3027 61.3947 40.585 61.3092C40.8038 62.1118 41.3065 63.0403 42.0442 63.9096C43.5362 65.668 45.4245 66.5177 46.2617 65.8073C47.0989 65.097 46.5678 63.0956 45.0756 61.3372C44.4789 60.6338 43.8186 60.0757 43.1875 59.7048C43.6258 59.245 43.9918 58.7156 44.2674 58.1351C45.659 58.7455 47.1558 60.0034 48.2803 61.7732C49.6512 63.9309 50.4089 66.7619 49.7531 69.8908C49.6829 70.2257 49.3859 70.4411 49.0673 70.415C45.7702 70.1443 43.0258 68.2605 41.2572 66.0408C40.4237 64.9947 39.8312 63.9029 39.5047 62.9194ZM46.3918 56.2946C45.7474 56.3321 45.221 56.2737 44.815 56.1566C44.8341 55.9623 44.8438 55.7652 44.8438 55.5658C44.8438 55.3737 44.8348 55.1839 44.8171 54.9965C45.6375 55.0252 46.742 54.7766 47.8683 54.2599C49.8763 53.3389 51.1933 51.9146 50.8098 51.0789C50.4266 50.2432 48.4881 50.3125 46.4801 51.2337C45.5104 51.6783 44.7019 52.2405 44.1681 52.797C43.8263 52.1408 43.3665 51.5558 42.8171 51.0699C43.2493 50.677 43.5993 50.1752 43.8757 49.6126C44.7975 48.7547 46.0459 47.9858 47.5204 47.483C49.94 46.6581 52.8699 46.5875 55.7567 47.9608C56.0656 48.1077 56.2053 48.4469 56.1048 48.7506C55.0664 51.8915 52.5899 54.1158 50.0165 55.3129C48.733 55.9097 47.4635 56.2322 46.3918 56.2946ZM38.4639 65.466C38.8103 66.0835 39.2225 66.6967 39.6931 67.2872C41.7188 69.8296 44.9321 72.0823 48.9038 72.4082C50.2497 72.5187 51.4382 71.6008 51.7105 70.3011C52.4855 66.603 51.5851 63.2453 49.9683 60.7006C49.3482 59.7247 48.6137 58.8549 47.8146 58.1258C48.8056 57.9365 49.842 57.5997 50.8599 57.1262C53.8075 55.7553 56.7527 53.1619 58.0038 49.3784C58.4277 48.0962 57.8151 46.7251 56.6159 46.1546C53.2038 44.5316 49.7285 44.6173 46.8751 45.59C46.1017 45.8537 45.3666 46.1853 44.6855 46.5707C44.7749 45.6861 44.7697 44.7403 44.6629 43.7748C44.306 40.5436 42.7903 36.924 39.605 34.5294C38.5255 33.718 37.0307 33.86 36.1067 34.8141C33.4782 37.5284 32.4486 40.8488 32.4583 43.8635C32.4609 44.6494 32.5342 45.422 32.6711 46.1638C32.2193 45.948 31.7486 45.7555 31.2629 45.59C28.4095 44.6173 24.9341 44.5316 21.522 46.1546C20.3229 46.7251 19.7102 48.0962 20.1342 49.3784C21.3852 53.1619 24.3304 55.7553 27.2781 57.1262C27.9725 57.4493 28.6755 57.7086 29.3667 57.9008C28.4696 58.6734 27.6445 59.6223 26.9593 60.7006C25.3427 63.2453 24.4421 66.603 25.2171 70.3011C25.4894 71.6008 26.6781 72.5187 28.024 72.4082C31.9957 72.0823 35.2088 69.8296 37.2347 67.2872C37.7051 66.6967 38.1174 66.0835 38.4639 65.466Z" fill="#545454"/>
<path fill-rule="evenodd" clip-rule="evenodd" d="M4.00001 29.9999H71.9999C73.1046 29.9999 74.0001 30.8954 74.0001 32.0001V40.0001H73.9999V42V88.0001H37.9997C37.9997 81.3727 32.6273 76 25.9999 76C19.3725 76 13.9998 81.3727 13.9998 88.0001H4.00001C2.89542 88.0001 2 87.1046 2 85.9999V32.0001C2 30.8954 2.89542 29.9999 4.00001 29.9999ZM73.9999 90H37.8338C36.8818 95.6754 31.9458 99.9999 25.9999 99.9999C20.0538 99.9999 15.1179 95.6754 14.1657 90H4.00001C1.79086 90 0 88.2091 0 85.9999V32.0001C0 29.7909 1.79086 28 4.00001 28H71.9999C74.2091 28 76 29.7909 76 32.0001V40.0001H85.9996H89.2597L110 67.0523V66.9635L111.986 69.5268L112 69.516V85.9999C112 88.2091 110.209 90 108 90H97.9996C97.9996 95.5229 93.5226 99.9999 87.9997 99.9999C82.4768 99.9999 77.9996 95.5229 77.9996 90H76H75.9998H74.0001H73.9999ZM76 88.0001H78.1997C79.1263 83.4355 83.1617 79.9999 87.9997 79.9999C92.8375 79.9999 96.8731 83.4355 97.7997 88.0001H108C109.104 88.0001 110 87.1046 110 85.9999V70.3395L102 59.9051V60.0001H86.0001C84.3433 60.0001 83 58.6568 83 57V42H76V88.0001ZM25.9999 98C31.5226 98 35.9998 93.5228 35.9998 88.0001C35.9998 82.4772 31.5226 78 25.9999 78C20.477 78 15.9998 82.4772 15.9998 88.0001C15.9998 93.5228 20.477 98 25.9999 98ZM88.273 42L100.54 57.9999H86.0001C85.4478 57.9999 85 57.5523 85 57V42H88.273ZM95.9997 90C95.9997 94.4182 92.4179 98 87.9997 98C83.5813 98 79.9997 94.4182 79.9997 90C79.9997 85.5818 83.5813 82.0001 87.9997 82.0001C92.4179 82.0001 95.9997 85.5818 95.9997 90Z" fill="#545454"/>
</svg>
