<svg width="66" height="90" viewBox="0 0 66 90" fill="none" xmlns="http://www.w3.org/2000/svg">
<path fill-rule="evenodd" clip-rule="evenodd" d="M17.2055 51.065L33.5279 54.7746L49.8502 51.065L51.4479 50.7017L51.6392 52.3289L52.8852 62.92L53.0769 64.549H51.4367H50.3236L59.6638 75.6804L60.711 76.9284L59.463 77.9756L53.2232 83.2112L51.9752 84.2584L50.9282 83.0106L35.4371 64.549H31.9216L14.5207 81.9501L13.3688 83.102L12.2167 81.9501L6.4571 76.1903L5.30518 75.0384L6.4571 73.8865L15.7943 64.549H15.6191H13.9788L14.1703 62.92L15.4163 52.3289L15.6079 50.7017L17.2055 51.065ZM18.0984 64.549L7.60902 75.0384L13.3688 80.7982L29.6178 64.549H28.6406H18.0984ZM30.2696 62.92H36.7859V56.4037H33.7106L33.5279 56.4451L33.3451 56.4037H30.2696V62.92ZM28.6406 55.3344V56.4037V62.92H15.8108L17.014 52.692L28.6406 55.3344ZM38.4152 55.3344V56.4037V62.92H51.245L50.0417 52.692L38.4152 55.3344ZM38.4152 64.549H37.5638L52.176 81.9634L58.4158 76.7276L48.1969 64.549H38.4152Z" fill="#545454"/>
<path fill-rule="evenodd" clip-rule="evenodd" d="M2.07968 19.749H0.417969L0.745384 21.3783L5.17125 43.3978C6.52701 50.143 10.4151 55.8397 15.7252 59.5783L15.9537 57.7275C11.3393 54.2249 7.97834 49.0962 6.76837 43.0768L2.40709 21.3783H63.628L59.7403 42.6538C58.6503 48.6187 55.4501 53.7455 50.9951 57.3207L51.3737 57.3654L51.1396 59.2638C56.3463 55.4349 60.1101 49.6934 61.3428 42.9467L65.2839 21.3783L65.5816 19.749H63.9255H2.07968ZM47.1776 76.2164L45.4052 76.0076C46.6542 79.891 47.4451 84.1237 47.6234 88.1084H19.9976C20.1863 82.861 21.2393 77.6997 22.893 73.3547L21.2268 73.1585C19.4063 78.093 18.3382 83.951 18.3382 89.8H19.9672H47.6616H49.2909C49.2909 85.4064 48.5203 80.6233 47.1776 76.2164Z" fill="#545454"/>
<path fill-rule="evenodd" clip-rule="evenodd" d="M54.4157 2.11354C54.7409 1.73427 55.3276 1.73427 55.6525 2.11354L58.8332 5.82427L54.8407 9.15141C54.5171 9.42096 54.0412 9.39949 53.7433 9.10157L50.8802 6.23837L54.4157 2.11354ZM56.8896 1.05335L60.0849 4.78125L61.0804 3.95163C62.5822 2.70008 64.9422 3.65175 64.9713 5.69651C65.0607 11.9538 63.6587 16.7185 61.4829 19.8935C61.1126 20.4339 60.7187 20.9293 60.3052 21.3781H57.9088C58.698 20.7725 59.4529 19.974 60.1391 18.9725C60.3999 18.5921 60.65 18.1829 60.8874 17.745L52.8602 10.5204L52.8787 10.4997C52.7781 10.4262 52.6821 10.344 52.5914 10.2535L45.9448 3.60689C45.1651 9.92552 45.8964 14.6265 47.37 17.7885C48.1064 19.3688 49.0197 20.5538 50.0208 21.3781H47.719C47.0299 20.5637 46.414 19.5941 45.8932 18.4767C44.1854 14.8121 43.4643 9.50907 44.4359 2.58945C44.4417 2.54765 44.4447 2.50457 44.4447 2.46826V2.17676C44.4447 1.30079 45.5039 0.862088 46.1232 1.4815L49.7248 5.08301L53.1788 1.05335C54.154 -0.0844428 55.9143 -0.0844428 56.8896 1.05335ZM55.473 10.6802L61.6165 16.2095C62.7231 13.5377 63.4043 10.0448 63.3425 5.71981C63.3341 5.13483 62.6419 4.77098 62.1233 5.20313L55.8836 10.4028C55.7541 10.5107 55.6163 10.6031 55.473 10.6802Z" fill="#545454"/>
<path fill-rule="evenodd" clip-rule="evenodd" d="M33.4394 2.11354C33.7645 1.73427 34.3512 1.73427 34.6762 2.11354L37.8568 5.82427L33.8644 9.15141C33.5407 9.42096 33.0649 9.39949 32.767 9.10157L29.9039 6.23837L33.4394 2.11354ZM35.9133 1.05335L39.1086 4.78125L40.1041 3.95163C41.6059 2.70008 43.9659 3.65175 43.995 5.69651C44.0844 11.9538 42.6824 16.7185 40.5066 19.8935C40.1362 20.4339 39.7424 20.9293 39.3289 21.3781H36.9325C37.7217 20.7725 38.4764 19.974 39.1628 18.9725C39.4235 18.5921 39.6737 18.1829 39.9111 17.745L31.8839 10.5204L31.9024 10.4997C31.8017 10.4262 31.7056 10.344 31.6151 10.2535L24.9684 3.60689C24.1887 9.92552 24.9199 14.6265 26.3936 17.7885C27.13 19.3688 28.0434 20.5538 29.0445 21.3781H26.7427C26.0535 20.5637 25.4377 19.5941 24.9169 18.4767C23.2091 14.8121 22.488 9.50907 23.4596 2.58945C23.4654 2.54765 23.4684 2.50457 23.4684 2.46826V2.17676C23.4684 1.30079 24.5275 0.862088 25.1469 1.4815L28.7484 5.08301L32.2025 1.05335C33.1777 -0.0844428 34.9379 -0.0844428 35.9133 1.05335ZM34.4967 10.6802L40.6402 16.2095C41.7468 13.5377 42.4279 10.0448 42.3661 5.71981C42.3577 5.13483 41.6656 4.77098 41.147 5.20313L34.9073 10.4028C34.7778 10.5107 34.64 10.6031 34.4967 10.6802Z" fill="#545454"/>
<path fill-rule="evenodd" clip-rule="evenodd" d="M12.4633 2.11354C12.7885 1.73427 13.3752 1.73427 13.7002 2.11354L16.8808 5.82427L12.8883 9.15141C12.5647 9.42096 12.0889 9.39949 11.7909 9.10157L8.92784 6.23837L12.4633 2.11354ZM14.9372 1.05335L18.1324 4.78125L19.128 3.95163C20.6298 2.70008 22.9898 3.65175 23.0189 5.69651C23.1083 11.9538 21.7063 16.7185 19.5305 19.8935C19.1602 20.4339 18.7663 20.9293 18.3528 21.3783H15.9564C16.7456 20.7725 17.5003 19.9742 18.1867 18.9725C18.4475 18.5921 18.6976 18.1829 18.935 17.745L10.9078 10.5204L10.9263 10.4997C10.8257 10.4262 10.7295 10.344 10.639 10.2535L3.99237 3.60689C3.21248 9.92552 3.94383 14.6265 5.41757 17.7885C6.15397 19.3688 7.06733 20.5539 8.06842 21.3783H5.76663C5.07746 20.5637 4.46165 19.5943 3.94085 18.4767C2.23304 14.8121 1.51194 9.50907 2.48354 2.58945C2.48933 2.54765 2.49232 2.50457 2.49232 2.46826V2.17676C2.49232 1.30079 3.55146 0.862088 4.17082 1.4815L7.77237 5.08301L11.2264 1.05335C12.2016 -0.0844428 13.9619 -0.0844428 14.9372 1.05335ZM13.5206 10.6802L19.6642 16.2095C20.7707 13.5377 21.4519 10.0448 21.3901 5.71981C21.3817 5.13483 20.6895 4.77098 20.171 5.20313L13.9312 10.4028C13.8017 10.5107 13.6639 10.6031 13.5206 10.6802Z" fill="#545454"/>
</svg>
