<svg width="32" height="32" viewBox="0 0 32 32" fill="none" xmlns="http://www.w3.org/2000/svg">
<path d="M16 32C24.8365 32 32 24.8365 32 16C32 7.16344 24.8365 0 16 0C7.16344 0 0 7.16344 0 16C0 24.8365 7.16344 32 16 32Z" fill="#61C0BF"/>
<path d="M7.74756 19.1528C5.6778 17.1907 5.49316 13.8127 7.33516 11.6078" stroke="white" stroke-width="0.752941"/>
<path d="M8.70717 17.5884C7.49365 16.2712 7.51229 14.1555 8.74881 12.8627" stroke="white" stroke-width="0.752941"/>
<path d="M20.3136 5.33334H11.5293C10.8363 5.33334 10.2744 5.89518 10.2744 6.58824V25.4118C10.2744 26.1048 10.8363 26.6667 11.5293 26.6667H20.3136C21.0067 26.6667 21.5685 26.1048 21.5685 25.4118V6.58824C21.5685 5.89518 21.0067 5.33334 20.3136 5.33334Z" fill="white"/>
<path d="M19.7698 7.84311H12.0731C11.7728 7.84311 11.5293 8.08657 11.5293 8.3869V22.3581C11.5293 22.6584 11.7728 22.9019 12.0731 22.9019H19.7698C20.0702 22.9019 20.3136 22.6584 20.3136 22.3581V8.3869C20.3136 8.08657 20.0702 7.84311 19.7698 7.84311Z" fill="#61C0BF"/>
<path d="M18.85 6.44882H12.9938C12.8783 6.44882 12.7847 6.54246 12.7847 6.65797C12.7847 6.77348 12.8783 6.86712 12.9938 6.86712H18.85C18.9655 6.86712 19.0592 6.77348 19.0592 6.65797C19.0592 6.54246 18.9655 6.44882 18.85 6.44882Z" fill="#61C0BF"/>
<path d="M15.9214 25.4119C16.2679 25.4119 16.5488 25.1309 16.5488 24.7844C16.5488 24.4379 16.2679 24.157 15.9214 24.157C15.5749 24.157 15.2939 24.4379 15.2939 24.7844C15.2939 25.1309 15.5749 25.4119 15.9214 25.4119Z" fill="#61C0BF"/>
<path d="M22.8049 12.8627C24.0944 14.2384 24.0247 16.3991 22.6489 17.6887" stroke="white" stroke-width="0.752941"/>
<path d="M24.2 11.6079C26.212 13.7544 26.1031 17.1256 23.9565 19.1376" stroke="white" stroke-width="0.752941"/>
</svg>
