<svg width="410" height="102" viewBox="0 0 410 102" fill="none" xmlns="http://www.w3.org/2000/svg">
<path opacity="0.9" fill-rule="evenodd" clip-rule="evenodd" d="M55.6384 41.739C53.9889 40.6104 47.9649 41.5815 45.2087 42.8433C41.1271 44.7129 40.6178 47.0949 41.4488 48.8544C42.5517 51.1866 44.5473 51.2067 46.57 50.3094C49.9733 48.8007 51.9995 41.1975 55.6384 41.739Z" fill="#BBDED6"/>
<path d="M29.158 26.4311C29.9618 28.5818 30.0352 30.908 29.3617 32.8976C28.6883 34.8875 27.3233 36.3779 25.567 37.0412C23.8108 37.7048 21.8071 37.4864 19.9969 36.4349C18.1866 35.3828 16.718 33.584 15.9141 31.433C15.1103 29.2825 15.037 26.9564 15.7104 24.9666C16.3839 22.9768 17.7489 21.4863 19.5051 20.823C21.2614 20.1597 23.265 20.3779 25.0753 21.4296C26.8855 22.4813 28.3542 24.2804 29.158 26.4311Z" fill="#FF9599"/>
<path d="M29.5995 15.2645C32.0587 15.1296 34.4218 15.6845 36.1682 16.8073C37.9148 17.9302 38.9021 19.5289 38.9131 21.2517C38.9238 22.9745 37.9576 24.6804 36.2261 25.9941C34.4952 27.3077 32.1409 28.1216 29.6816 28.2565C28.464 28.3234 27.2571 28.2215 26.1301 27.9568C25.003 27.6921 23.9778 27.2697 23.1129 26.7137C22.2481 26.1578 21.5605 25.4791 21.0896 24.7166C20.6186 23.954 20.3734 23.1225 20.368 22.2694C20.3626 21.4163 20.5971 20.5585 21.0581 19.7447C21.5191 18.931 22.1976 18.1774 23.0548 17.527C23.912 16.8765 24.9313 16.3419 26.0541 15.9537C27.1771 15.5655 28.3818 15.3314 29.5995 15.2645Z" fill="#FF9599"/>
<path d="M11.5872 19.9237C13.7698 18.6789 16.1976 18.0675 18.3366 18.2239C20.4755 18.3802 22.1504 19.2916 22.9929 20.7574C23.8353 22.2233 23.7761 24.1236 22.8285 26.0404C21.8809 27.9571 20.1223 29.7331 17.9397 30.9781C15.7572 32.2228 13.3294 32.8342 11.1904 32.6779C9.0514 32.5213 7.37649 31.6102 6.53409 30.1441C5.69169 28.6783 5.75081 26.778 6.69841 24.8613C7.64608 22.9445 9.40462 21.1684 11.5872 19.9237Z" fill="#FF9599"/>
<path d="M17.5296 11.6266C19.3368 12.8672 20.6759 14.5477 21.2524 16.2984C21.8288 18.049 21.5953 19.7265 20.6032 20.9618C19.6111 22.1971 17.9418 22.8889 15.9624 22.8852C13.983 22.8814 11.8557 22.1824 10.0484 20.9418C8.24117 19.7012 6.90208 18.0207 6.32564 16.27C5.74924 14.5193 5.98276 12.8418 6.97481 11.6066C7.96689 10.3713 9.63624 9.67946 11.6157 9.68324C13.595 9.68696 15.7223 10.3861 17.5296 11.6266Z" fill="#FF9599"/>
<path d="M30.6954 14.8735C30.5323 17.1376 29.6588 19.274 28.2664 20.813C26.874 22.3519 25.0768 23.1672 23.2702 23.0795C21.4637 22.9919 19.7957 22.0084 18.6333 20.3455C17.4708 18.6826 16.9091 16.4765 17.0718 14.2124C17.2344 11.9484 18.108 9.81193 19.5004 8.27299C20.8929 6.73408 22.69 5.91877 24.4966 6.0064C26.3032 6.09409 27.9712 7.07755 29.1336 8.74045C30.2961 10.4033 30.8579 12.6095 30.6954 14.8735Z" fill="#FF9599"/>
<path d="M25.9129 24.6328C26.3872 25.9017 26.4304 27.2742 26.033 28.4482C25.6357 29.6222 24.8303 30.5015 23.7941 30.893C22.7579 31.2845 21.5757 31.1555 20.5077 30.5351C19.4395 29.9146 18.5731 28.8531 18.0988 27.5842C17.6245 26.3153 17.5813 24.9428 17.9786 23.7688C18.376 22.5948 19.1813 21.7154 20.2175 21.324C21.2538 20.9326 22.4359 21.0613 23.504 21.6819C24.5721 22.3024 25.4386 23.3639 25.9129 24.6328Z" fill="white"/>
<path d="M26.1695 17.0852C27.6262 17.006 29.0257 17.3314 30.0602 17.9897C31.0947 18.6479 31.6797 19.5852 31.6859 20.5952C31.6928 21.6053 31.12 22.6054 30.0947 23.3756C29.0692 24.1458 27.6748 24.6229 26.2181 24.702C24.7614 24.7811 23.3619 24.4558 22.3273 23.7975C21.2928 23.1393 20.7079 22.202 20.7015 21.1919C20.6951 20.1819 21.2675 19.1817 22.293 18.4116C23.3184 17.6414 24.7128 17.1643 26.1695 17.0852Z" fill="white"/>
<path d="M15.5512 20.7934C16.8389 20.0589 18.2713 19.6981 19.5334 19.7904C20.7954 19.8827 21.7836 20.4204 22.2807 21.2853C22.7777 22.1502 22.7428 23.2714 22.1837 24.4023C21.6246 25.5331 20.587 26.5811 19.2993 27.3155C18.0116 28.0499 16.5791 28.4107 15.3171 28.3184C14.0551 28.2262 13.0668 27.6885 12.5698 26.8236C12.0728 25.9587 12.1076 24.8375 12.6668 23.7066C13.2259 22.5757 14.2634 21.5278 15.5512 20.7934Z" fill="white"/>
<path d="M19.0527 15.8962C20.119 16.6282 20.9091 17.6197 21.2492 18.6526C21.5893 19.6855 21.4516 20.6752 20.8662 21.4041C20.2809 22.1329 19.2959 22.5411 18.128 22.5389C16.9602 22.5367 15.705 22.1242 14.6387 21.3922C13.5724 20.6603 12.7823 19.6688 12.4422 18.6358C12.1021 17.6029 12.2399 16.6132 12.8252 15.8843C13.4106 15.1555 14.3955 14.7473 15.5634 14.7495C16.7313 14.7517 17.9864 15.1642 19.0527 15.8962Z" fill="white"/>
<path d="M26.823 17.8137C26.727 19.1495 26.2116 20.4101 25.39 21.3181C24.5684 22.2261 23.5081 22.7071 22.4422 22.6554C21.3763 22.6037 20.3922 22.0234 19.7063 21.0423C19.0205 20.0612 18.6891 18.7595 18.7851 17.4237C18.881 16.0879 19.3964 14.8273 20.218 13.9193C21.0396 13.0113 22.0999 12.5303 23.1658 12.582C24.2317 12.6337 25.2158 13.214 25.9017 14.1951C26.5875 15.1762 26.9189 16.4779 26.823 17.8137Z" fill="white"/>
<path d="M23.0583 19.4345C23.7455 19.9062 24.1982 20.6155 24.3168 21.4063C24.4355 22.1971 24.2104 23.0046 23.6911 23.6513C23.1717 24.298 22.4007 24.7307 21.5476 24.8545C20.6945 24.9782 19.8292 24.7827 19.142 24.311C18.4549 23.8393 18.0022 23.13 17.8835 22.3392C17.7648 21.5484 17.99 20.7409 18.5093 20.0942C19.0286 19.4475 19.7997 19.0147 20.6528 18.891C21.5059 18.7673 22.3712 18.9628 23.0583 19.4345Z" fill="#F0E060"/>
<path opacity="0.9" fill-rule="evenodd" clip-rule="evenodd" d="M18.4935 46.4397C18.2173 48.336 21.9485 52.9485 24.4168 54.6879C28.0731 57.2637 30.5297 56.6097 31.7778 55.1145C33.4309 53.1309 32.5131 51.4479 30.7284 50.1582C27.7266 47.988 19.6975 49.7379 18.4934 46.44L18.4935 46.4397Z" fill="#BBDED6"/>
<path fill-rule="evenodd" clip-rule="evenodd" d="M56.1605 54.9286C57.8938 49.8286 58.4393 28.0459 57.3412 25.697C55.1278 20.9617 52.521 19.2031 49.5215 20.4212C46.5425 21.6193 42.4671 26.8759 37.2952 36.1891L34.3785 32.122C32.6821 29.1941 31.3377 27.5731 30.3445 27.2587C29.5583 28.2608 29.0932 29.6665 28.9484 31.4743C32.1137 33.7144 34.2547 36.1705 35.3721 38.8426C34.0892 45.2482 33.0755 49.7572 32.3306 52.3705C31.6066 54.9838 31.0275 57.3121 30.5932 59.3554C30.1793 61.3795 29.5174 64.2871 28.6071 68.0797C27.6968 71.8723 26.9314 75.8317 26.3108 79.9576C25.6902 84.1039 25.7108 87.4441 26.3729 89.9788C27.0555 92.5135 28.0175 94.2427 29.2587 95.1661C30.5207 96.1093 31.9792 96.2959 33.634 95.7259C35.2892 95.1562 36.6956 94.1443 37.8543 92.6902C39.0335 91.2556 40.1607 89.0551 41.2365 86.0881C42.3331 83.1409 43.0988 80.5081 43.5331 78.1894C43.9675 75.8707 44.226 72.7078 44.3089 68.6995C44.412 64.6711 43.7708 59.7391 42.3851 53.9032C40.9989 48.0481 39.7576 43.0873 38.6613 39.0199C41.8881 32.6344 44.5361 28.4195 46.6049 26.3759C48.6733 24.3128 50.5147 24.1458 52.128 25.8749C53.7623 27.5845 54.7867 30.8953 55.2003 35.8075C55.6344 40.6996 56.1605 46.4287 56.2865 51.6637L56.1605 54.9286ZM36.4271 42.4384C35.0821 48.8047 34.1308 53.137 33.5719 55.4359C33.0137 57.7153 32.3306 60.6826 31.524 64.3372C30.7171 67.9921 29.8691 72.0493 28.9795 76.5097C28.0899 80.9701 27.8106 84.4774 28.1416 87.0319C28.4933 89.6059 29.3002 91.0009 30.5623 91.2169C31.8449 91.4332 32.8791 91.2169 33.6652 90.5686C34.4721 89.9203 35.3825 88.6822 36.3959 86.8552C37.4096 85.0276 38.3404 82.0903 39.1886 78.0424C40.0576 74.0143 40.4715 70.8412 40.4299 68.5225C40.4094 66.2038 40.1298 63.001 39.5921 58.9141C39.0748 54.8077 38.0198 49.3153 36.4271 42.4384Z" fill="#61C0BF"/>
<path d="M103.349 66V43.236L93.6161 60.75H91.3284L81.5538 43.236V66H77.8103V36.18H81.7618L92.4515 55.542L103.183 36.18H107.093V66H103.349ZM122.7 66.42C120.537 66.42 118.624 65.9019 116.96 64.866C115.324 63.8019 114.049 62.4159 113.134 60.708C112.219 58.9719 111.761 57.096 111.761 55.08C111.761 53.0361 112.219 51.1599 113.134 49.452C114.076 47.7159 115.366 46.3299 117.002 45.294C118.666 44.2299 120.565 43.698 122.7 43.698C124.863 43.698 126.763 44.2299 128.399 45.294C130.062 46.3299 131.352 47.7159 132.267 49.452C133.21 51.1599 133.681 53.0361 133.681 55.08C133.681 57.096 133.21 58.9719 132.267 60.708C131.352 62.4159 130.076 63.8019 128.44 64.866C126.804 65.9019 124.891 66.42 122.7 66.42ZM115.504 55.122C115.504 56.634 115.823 58.0059 116.461 59.238C117.127 60.4701 118 61.4499 119.082 62.178C120.163 62.8779 121.369 63.228 122.7 63.228C124.031 63.228 125.238 62.8641 126.319 62.136C127.428 61.4079 128.302 60.4281 128.939 59.196C129.605 57.936 129.938 56.55 129.938 55.038C129.938 53.526 129.605 52.1541 128.939 50.922C128.302 49.6899 127.428 48.7101 126.319 47.982C125.238 47.2539 124.031 46.89 122.7 46.89C121.369 46.89 120.163 47.268 119.082 48.024C118 48.7521 117.127 49.7319 116.461 50.964C115.823 52.1961 115.504 53.5821 115.504 55.122ZM156.958 66H153.298V53.736C153.298 51.4119 152.938 49.7181 152.217 48.654C151.524 47.562 150.456 47.016 149.014 47.016C148.016 47.016 147.017 47.268 146.019 47.772C145.049 48.276 144.175 48.9621 143.399 49.83C142.65 50.67 142.109 51.6501 141.777 52.77V66H138.116V44.076H141.444V48.78C142.304 47.2401 143.537 46.008 145.146 45.084C146.782 44.16 148.556 43.698 150.47 43.698C152.161 43.698 153.465 44.1039 154.38 44.916C155.323 45.6999 155.988 46.7919 156.376 48.192C156.764 49.5639 156.958 51.132 156.958 52.896V66ZM170.096 66.42C168.293 66.42 166.602 66.126 165.021 65.538C163.441 64.9221 162.082 64.0119 160.945 62.808L162.359 60.204C163.607 61.38 164.855 62.22 166.103 62.724C167.351 63.228 168.626 63.48 169.93 63.48C171.427 63.48 172.647 63.2001 173.59 62.64C174.533 62.052 175.004 61.1979 175.004 60.078C175.004 59.2659 174.755 58.6641 174.255 58.272C173.784 57.8799 173.104 57.558 172.217 57.306C171.33 57.0261 170.276 56.718 169.056 56.382C166.81 55.7379 165.091 54.9819 163.898 54.114C162.734 53.2179 162.151 51.9159 162.151 50.208C162.151 48.1359 162.928 46.5399 164.481 45.42C166.061 44.2719 168.072 43.698 170.512 43.698C173.784 43.698 176.363 44.6919 178.248 46.68L176.585 49.242C174.893 47.478 172.8 46.596 170.304 46.596C169.555 46.596 168.82 46.6941 168.099 46.89C167.378 47.058 166.782 47.3799 166.311 47.856C165.839 48.3039 165.604 48.948 165.604 49.788C165.604 50.8239 166.02 51.5661 166.852 52.014C167.684 52.4619 168.903 52.9239 170.512 53.4C172.148 53.8761 173.562 54.3519 174.755 54.828C175.974 55.3041 176.917 55.92 177.583 56.676C178.248 57.432 178.581 58.482 178.581 59.826C178.581 61.8981 177.805 63.522 176.252 64.698C174.699 65.8461 172.647 66.42 170.096 66.42ZM192.444 66.42C190.281 66.42 188.367 65.9019 186.704 64.866C185.068 63.8019 183.792 62.4159 182.877 60.708C181.962 58.9719 181.504 57.096 181.504 55.08C181.504 53.0361 181.962 51.1599 182.877 49.452C183.82 47.7159 185.109 46.3299 186.745 45.294C188.409 44.2299 190.308 43.698 192.444 43.698C194.607 43.698 196.506 44.2299 198.142 45.294C199.806 46.3299 201.095 47.7159 202.01 49.452C202.953 51.1599 203.425 53.0361 203.425 55.08C203.425 57.096 202.953 58.9719 202.01 60.708C201.095 62.4159 199.82 63.8019 198.184 64.866C196.548 65.9019 194.634 66.42 192.444 66.42ZM185.248 55.122C185.248 56.634 185.567 58.0059 186.205 59.238C186.87 60.4701 187.743 61.4499 188.825 62.178C189.906 62.8779 191.113 63.228 192.444 63.228C193.775 63.228 194.981 62.8641 196.062 62.136C197.171 61.4079 198.045 60.4281 198.683 59.196C199.348 57.936 199.681 56.55 199.681 55.038C199.681 53.526 199.348 52.1541 198.683 50.922C198.045 49.6899 197.171 48.7101 196.062 47.982C194.981 47.2539 193.775 46.89 192.444 46.89C191.113 46.89 189.906 47.268 188.825 48.024C187.743 48.7521 186.87 49.7319 186.205 50.964C185.567 52.1961 185.248 53.5821 185.248 55.122ZM217.343 66.42C215.181 66.42 213.267 65.9019 211.603 64.866C209.967 63.8019 208.692 62.4159 207.777 60.708C206.862 58.9719 206.404 57.096 206.404 55.08C206.404 53.0361 206.862 51.1599 207.777 49.452C208.719 47.7159 210.009 46.3299 211.645 45.294C213.309 44.2299 215.208 43.698 217.343 43.698C219.506 43.698 221.406 44.2299 223.042 45.294C224.706 46.3299 225.995 47.7159 226.91 49.452C227.853 51.1599 228.324 53.0361 228.324 55.08C228.324 57.096 227.853 58.9719 226.91 60.708C225.995 62.4159 224.719 63.8019 223.083 64.866C221.447 65.9019 219.534 66.42 217.343 66.42ZM210.148 55.122C210.148 56.634 210.466 58.0059 211.104 59.238C211.77 60.4701 212.643 61.4499 213.725 62.178C214.806 62.8779 216.012 63.228 217.343 63.228C218.674 63.228 219.881 62.8641 220.962 62.136C222.071 61.4079 222.945 60.4281 223.583 59.196C224.248 57.936 224.581 56.55 224.581 55.038C224.581 53.526 224.248 52.1541 223.583 50.922C222.945 49.6899 222.071 48.7101 220.962 47.982C219.881 47.2539 218.674 46.89 217.343 46.89C216.012 46.89 214.806 47.268 213.725 48.024C212.643 48.7521 211.77 49.7319 211.104 50.964C210.466 52.1961 210.148 53.5821 210.148 55.122ZM251.602 66H247.941V53.736C247.941 51.4119 247.581 49.7181 246.86 48.654C246.167 47.562 245.099 47.016 243.657 47.016C242.659 47.016 241.661 47.268 240.662 47.772C239.692 48.276 238.818 48.9621 238.042 49.83C237.293 50.67 236.752 51.6501 236.42 52.77V66H232.759V44.076H236.087V48.78C236.946 47.2401 238.181 46.008 239.789 45.084C241.425 44.16 243.2 43.698 245.113 43.698C246.804 43.698 248.108 44.1039 249.023 44.916C249.965 45.6999 250.631 46.7919 251.019 48.192C251.408 49.5639 251.602 51.132 251.602 52.896V66ZM285.824 66.294C284.41 66.294 283.287 65.8881 282.455 65.076C281.651 64.2639 281.249 63.1299 281.249 61.674V42.774C281.249 42.0459 281.124 41.3319 280.874 40.632C280.625 39.9039 280.195 39.3021 279.585 38.826C278.975 38.3499 278.116 38.112 277.006 38.112C275.481 38.112 274.386 38.6301 273.72 39.666C273.055 40.7019 272.694 42.0459 272.639 43.698V44.076H276.923V46.974H272.639V66H268.978V46.974H266.025V44.076H268.978V43.32C268.978 40.7721 269.658 38.742 271.017 37.23C272.376 35.6901 274.358 34.92 276.965 34.92C279.627 34.92 281.609 35.5779 282.913 36.894C284.244 38.2101 284.909 39.9039 284.909 41.976V60.33C284.909 61.5339 285.075 62.2761 285.408 62.556C285.741 62.8359 286.143 62.976 286.614 62.976C287.197 62.976 287.751 62.9199 288.278 62.808C288.805 62.6679 289.249 62.5281 289.609 62.388L290.192 65.412C289.582 65.664 288.861 65.874 288.029 66.042C287.197 66.21 286.462 66.294 285.824 66.294ZM302.523 66.42C300.36 66.42 298.447 65.9019 296.782 64.866C295.146 63.8019 293.871 62.4159 292.955 60.708C292.04 58.9719 291.583 57.096 291.583 55.08C291.583 53.0361 292.04 51.1599 292.955 49.452C293.898 47.7159 295.188 46.3299 296.824 45.294C298.488 44.2299 300.387 43.698 302.523 43.698C304.686 43.698 306.584 44.2299 308.221 45.294C309.885 46.3299 311.175 47.7159 312.09 49.452C313.031 51.1599 313.504 53.0361 313.504 55.08C313.504 57.096 313.031 58.9719 312.09 60.708C311.175 62.4159 309.897 63.8019 308.263 64.866C306.626 65.9019 304.713 66.42 302.523 66.42ZM295.326 55.122C295.326 56.634 295.645 58.0059 296.283 59.238C296.949 60.4701 297.823 61.4499 298.904 62.178C299.986 62.8779 301.192 63.228 302.523 63.228C303.854 63.228 305.06 62.8641 306.142 62.136C307.25 61.4079 308.123 60.4281 308.762 59.196C309.428 57.936 309.76 56.55 309.76 55.038C309.76 53.526 309.428 52.1541 308.762 50.922C308.123 49.6899 307.25 48.7101 306.142 47.982C305.06 47.2539 303.854 46.89 302.523 46.89C301.192 46.89 299.986 47.268 298.904 48.024C297.823 48.7521 296.949 49.7319 296.283 50.964C295.645 52.1961 295.326 53.5821 295.326 55.122ZM344.408 44.076H347.944L338.71 66H335.507L331.306 55.668L327.147 66H323.944L314.71 44.076H318.204L325.691 62.346L329.185 53.358L325.525 44.118H328.727L331.306 51.09L333.885 44.118H337.088L333.469 53.358L336.963 62.346L344.408 44.076ZM360.244 66.42C358.081 66.42 356.168 65.9019 354.504 64.866C352.84 63.8301 351.539 62.4441 350.594 60.708C349.652 58.9719 349.18 57.0819 349.18 55.038C349.18 52.9659 349.652 51.0759 350.594 49.368C351.539 47.6601 352.84 46.2879 354.504 45.252C356.197 44.2161 358.123 43.698 360.285 43.698C362.478 43.698 364.377 44.2299 365.984 45.294C367.621 46.3299 368.884 47.7021 369.769 49.41C370.684 51.09 371.142 52.9101 371.142 54.87C371.142 55.4859 371.115 55.962 371.058 56.298H353.048C353.161 57.726 353.547 59.0001 354.213 60.12C354.908 61.212 355.793 62.0799 356.875 62.724C357.956 63.3399 359.121 63.648 360.369 63.648C361.7 63.648 362.948 63.312 364.112 62.64C365.306 61.968 366.124 61.086 366.566 59.994L369.727 60.876C369.035 62.4999 367.829 63.8301 366.109 64.866C364.391 65.9019 362.436 66.42 360.244 66.42ZM352.923 53.736H367.731C367.621 52.308 367.22 51.048 366.525 49.956C365.832 48.864 364.944 48.0099 363.863 47.394C362.781 46.7781 361.59 46.47 360.285 46.47C359.011 46.47 357.831 46.7781 356.75 47.394C355.669 48.0099 354.783 48.864 354.088 49.956C353.422 51.048 353.036 52.308 352.923 53.736ZM386.692 47.31C384.862 47.3379 383.24 47.814 381.825 48.738C380.438 49.6341 379.454 50.88 378.872 52.476V66H375.212V44.076H378.623V49.158C379.371 47.646 380.355 46.428 381.576 45.504C382.824 44.5521 384.128 44.0199 385.486 43.908C385.762 43.908 386 43.908 386.193 43.908C386.386 43.908 386.552 43.9221 386.692 43.95V47.31ZM397.768 66.42C395.964 66.42 394.274 66.126 392.693 65.538C391.113 64.9221 389.752 64.0119 388.617 62.808L390.031 60.204C391.279 61.38 392.527 62.22 393.775 62.724C395.023 63.228 396.297 63.48 397.601 63.48C399.099 63.48 400.317 63.2001 401.262 62.64C402.204 62.052 402.676 61.1979 402.676 60.078C402.676 59.2659 402.426 58.6641 401.927 58.272C401.455 57.8799 400.774 57.558 399.889 57.306C399.001 57.0261 397.946 56.718 396.728 56.382C394.482 55.7379 392.762 54.9819 391.57 54.114C390.406 53.2179 389.823 51.9159 389.823 50.208C389.823 48.1359 390.599 46.5399 392.153 45.42C393.733 44.2719 395.742 43.698 398.184 43.698C401.455 43.698 404.034 44.6919 405.92 46.68L404.257 49.242C402.563 47.478 400.471 46.596 397.976 46.596C397.227 46.596 396.49 46.6941 395.771 46.89C395.049 47.058 394.452 47.3799 393.983 47.856C393.51 48.3039 393.276 48.948 393.276 49.788C393.276 50.8239 393.692 51.5661 394.523 52.014C395.355 52.4619 396.573 52.9239 398.184 53.4C399.818 53.8761 401.232 54.3519 402.426 54.828C403.645 55.3041 404.589 55.92 405.255 56.676C405.92 57.432 406.253 58.482 406.253 59.826C406.253 61.8981 405.475 63.522 403.924 64.698C402.37 65.8461 400.317 66.42 397.768 66.42Z" fill="#545454"/>
</svg>
