<svg width="32" height="32" viewBox="0 0 32 32" fill="none" xmlns="http://www.w3.org/2000/svg">
<path d="M16 32C24.8365 32 32 24.8365 32 16C32 7.16344 24.8365 0 16 0C7.16344 0 0 7.16344 0 16C0 24.8365 7.16344 32 16 32Z" fill="#61C0BF"/>
<path d="M6.65876 15.8613L17.4333 11.422C18.4969 10.9595 22.1038 9.47976 22.1038 9.47976C22.1038 9.47976 23.7686 8.83236 23.6298 10.4046C23.5835 11.052 23.2137 13.3179 22.8437 15.7688L21.6877 23.0289C21.6877 23.0289 21.5951 24.0925 20.809 24.2775C20.0229 24.4624 18.7281 23.63 18.4969 23.4451C18.3119 23.3064 15.0287 21.2255 13.8263 20.2081C13.5026 19.9307 13.1327 19.3757 13.8726 18.7283C15.5374 17.2023 17.5258 15.3064 18.7281 14.104C19.283 13.5492 19.8379 12.2543 17.5258 13.8265L11.0056 18.2196C11.0056 18.2196 10.2657 18.6821 8.8784 18.2659C7.49112 17.8497 5.87262 17.2948 5.87262 17.2948C5.87262 17.2948 4.7628 16.6012 6.65876 15.8613Z" fill="white"/>
</svg>
