<svg width="32" height="32" viewBox="0 0 32 32" fill="none" xmlns="http://www.w3.org/2000/svg">
<path fill-rule="evenodd" clip-rule="evenodd" d="M16.0161 32C24.8439 32 32 24.8365 32 16C32 7.16344 24.8439 0 16.0161 0C7.18851 0 0.0322868 7.16344 0.0322868 16C0.0322868 18.8512 0.777344 21.5283 2.08321 23.8468L0 31.3943L6.49652 28.854C9.15573 30.8307 12.4495 32 16.0161 32Z" fill="#61C0BF"/>
<path fill-rule="evenodd" clip-rule="evenodd" d="M12.0867 8.68613C11.7923 8.03367 11.4822 8.02061 11.2021 8.00919C10.9729 7.99939 10.7106 8.00001 10.4487 8.00001C10.1866 8.00001 9.76069 8.09817 9.40049 8.49021C9.04009 8.88225 8.02441 9.82998 8.02441 11.7575C8.02441 13.6852 9.43325 15.5479 9.62963 15.8095C9.82621 16.0707 12.3492 20.1527 16.345 21.7231C19.6658 23.0281 20.3417 22.7685 21.0625 22.7033C21.7833 22.638 23.3882 21.7557 23.7159 20.8408C24.0435 19.9261 24.0435 19.1421 23.9453 18.9783C23.8469 18.8149 23.5849 18.7169 23.1917 18.5211C22.7985 18.3252 20.8658 17.3772 20.5054 17.2467C20.145 17.116 19.8829 17.0507 19.6209 17.4429C19.3587 17.8348 18.6057 18.7169 18.3763 18.9783C18.147 19.24 17.9177 19.2727 17.5245 19.0768C17.1314 18.8803 15.8653 18.4669 14.3633 17.1323C13.1946 16.094 12.4055 14.8115 12.1762 14.4193C11.9469 14.0275 12.1516 13.8152 12.3488 13.6199C12.5253 13.4444 12.742 13.1625 12.9386 12.9338C13.1347 12.705 13.2003 12.5417 13.3313 12.2805C13.4623 12.0189 13.3969 11.7901 13.2986 11.5942C13.2003 11.3983 12.4363 9.46081 12.0867 8.68613Z" fill="white"/>
</svg>
