<svg width="112" height="112" viewBox="0 0 112 112" fill="none" xmlns="http://www.w3.org/2000/svg">
<path d="M79.5875 74.6667C78.7389 78.909 82.1331 83.1516 84.6785 84" stroke="#545454" stroke-width="0.909091"/>
<path d="M90.6176 72.1213C90.6176 75.5151 90.6176 81.4546 84.6782 84" stroke="#545454" stroke-width="0.909091"/>
<path d="M85.5266 56.8484C85.5266 58.8849 84.961 60.5252 84.6782 61.0909" stroke="#545454" stroke-width="0.909091"/>
<path d="M77.8906 42.4243C77.8906 44.9697 79.5874 48.3637 80.436 49.2121" stroke="#545454" stroke-width="0.909091"/>
<path d="M94.8605 39.0303C94.0121 41.5757 94.0121 43.2727 90.6182 48.3636" stroke="#545454" stroke-width="0.909091"/>
<path d="M82.2546 27.9151C81.559 24.9454 84.0561 20.7879 84.6564 17.8182C85.6573 20.7879 87.84 25.2482 87.0584 27.9151C86.3623 30.291 82.7595 30.291 82.2546 27.9151Z" stroke="#545454" stroke-width="0.909091"/>
<path fill-rule="evenodd" clip-rule="evenodd" d="M70.2544 60.2424H71.9682H99.0862H100.8L100.56 61.9394L98.0306 79.858C97.5579 83.207 94.6917 85.697 91.3095 85.697H88.9491L91.1833 99.103L91.4663 100.8H89.7458H78.2532H76.5329L76.8157 99.103L79.0557 85.6623C75.9802 85.3509 73.4639 82.9769 73.0238 79.858L70.4941 61.9394L70.2544 60.2424ZM74.704 79.6208L72.2079 61.9394H98.8465L96.3504 79.6208C95.9957 82.1326 93.8461 84 91.3095 84H79.7449C77.2083 84 75.0586 82.1326 74.704 79.6208ZM87.2286 85.697L89.463 99.103H78.536L80.7704 85.697H87.2286Z" fill="#545454"/>
<path d="M78.534 30.0494L80.6613 32.5231C80.9194 32.8233 81.2441 33.0592 81.6092 33.2119L84.6194 34.4706C85.0983 34.6709 85.2867 35.2507 85.017 35.6944L83.3215 38.4819C83.1158 38.8201 82.9918 39.2017 82.9595 39.5963L82.6926 42.848C82.65 43.3655 82.1569 43.7237 81.6515 43.6042L78.4765 42.8532C78.0913 42.7622 77.6901 42.7622 77.3048 42.8532L74.1298 43.6042C73.6245 43.7237 73.1313 43.3655 73.0888 42.848L72.8218 39.5963C72.7896 39.2017 72.6656 38.8201 72.4599 38.4819L70.7644 35.6944C70.4947 35.2507 70.683 34.6709 71.162 34.4706L74.1722 33.2119C74.5373 33.0592 74.8619 32.8233 75.1201 32.5231L77.2473 30.0494C77.586 29.6557 78.1954 29.6557 78.534 30.0494Z" stroke="#545454" stroke-width="0.909091"/>
<path d="M95.5037 26.6554L97.6309 29.1293C97.8891 29.4295 98.2137 29.6652 98.579 29.8179L101.589 31.0766C102.068 31.2771 102.256 31.8567 101.987 32.3004L100.291 35.0879C100.086 35.4262 99.9615 35.8079 99.9292 36.2023L99.6622 39.454C99.6197 39.9715 99.1265 40.3299 98.6212 40.2104L95.4462 39.4595C95.0609 39.3684 94.6598 39.3684 94.2745 39.4595L91.0995 40.2104C90.5942 40.3299 90.101 39.9715 90.0586 39.454L89.7915 36.2023C89.7592 35.8079 89.6353 35.4262 89.4296 35.0879L87.7343 32.3004C87.4643 31.8567 87.6527 31.2771 88.1318 31.0766L91.1419 29.8179C91.5072 29.6652 91.8316 29.4295 92.0897 29.1293L94.217 26.6554C94.5556 26.2618 95.1651 26.2618 95.5037 26.6554Z" stroke="#545454" stroke-width="0.909091"/>
<path d="M86.1704 45.3221L87.9636 47.4074C88.2215 47.7075 88.5461 47.9433 88.9114 48.0962L91.4486 49.1572C91.9276 49.3575 92.1161 49.9371 91.8462 50.3808L90.4173 52.7305C90.2116 53.0688 90.0876 53.4503 90.0551 53.8449L89.83 56.5858C89.7877 57.1032 89.2945 57.4616 88.7892 57.3421L86.1129 56.7091C85.7277 56.618 85.3265 56.618 84.9412 56.7091L82.2648 57.3421C81.7595 57.4616 81.2663 57.1032 81.224 56.5858L80.9988 53.8449C80.9665 53.4503 80.8426 53.0688 80.6369 52.7305L79.2078 50.3808C78.938 49.9371 79.1264 49.3575 79.6054 49.1572L82.1425 48.0962C82.5078 47.9433 82.8325 47.7075 83.0906 47.4074L84.8837 45.3221C85.2222 44.9284 85.8318 44.9284 86.1704 45.3221Z" stroke="#545454" stroke-width="0.909091"/>
<path fill-rule="evenodd" clip-rule="evenodd" d="M76.0286 51.0983L75.3191 50.0606L74.6221 51.1067C73.7429 52.4268 72.9501 54.2382 72.4622 56.0879C71.9862 57.8919 71.7724 59.8362 72.1316 61.449C72.1377 61.5567 72.153 61.6601 72.1762 61.759H74.3697C74.2555 61.7172 74.1545 61.6687 74.0701 61.6164C73.828 61.4658 73.8254 61.3596 73.8254 61.339V61.2399L73.8024 61.1434C73.5081 59.9015 73.6512 58.2325 74.103 56.5208C74.4096 55.3582 74.8453 54.2259 75.3337 53.261C75.8371 54.25 76.2879 55.4305 76.6011 56.6285C77.0616 58.3912 77.1818 60.0316 76.8667 61.096C76.7833 61.3715 76.5451 61.6118 76.1798 61.759H78.4331C78.4543 61.7021 78.4741 61.6437 78.4922 61.5837L78.4932 61.5804C78.9423 60.0663 78.7282 58.0571 78.2428 56.1995C77.751 54.3168 76.9369 52.4263 76.0286 51.0983Z" fill="#545454"/>
<path fill-rule="evenodd" clip-rule="evenodd" d="M94.6975 52.5752L93.988 51.5375L93.291 52.5838C92.5307 53.7253 91.8479 55.2867 91.4277 56.8792C91.0194 58.4267 90.8318 60.1067 91.1419 61.511C91.1473 61.5968 91.1589 61.6795 91.176 61.759H93.7707C93.4396 61.7325 93.1611 61.6411 92.9865 61.5326C92.8966 61.4766 92.856 61.4301 92.8415 61.4081C92.8381 61.4034 92.8363 61.4001 92.8353 61.398V61.3008L92.8124 61.2043C92.5673 60.1707 92.6849 58.7666 93.0685 57.3121C93.3055 56.4136 93.6333 55.5372 94.002 54.7714C94.3833 55.56 94.7235 56.4751 94.9661 57.4039C95.3581 58.9038 95.4543 60.2793 95.1946 61.1568C95.1087 61.4391 94.766 61.7094 94.1754 61.759H96.7826C96.7958 61.7217 96.8083 61.6834 96.8199 61.6446L96.8208 61.6414C97.2147 60.3142 97.0249 58.5698 96.608 56.975C96.1847 55.3549 95.4837 53.7247 94.6975 52.5752Z" fill="#545454"/>
<path fill-rule="evenodd" clip-rule="evenodd" d="M81.3372 54.0336L81.7835 55.2089C82.1666 56.2176 82.395 57.5609 82.4191 58.8414C82.4352 59.7038 82.3605 60.6155 82.1328 61.4107V60.2424H80.6467C80.7051 59.8321 80.7317 59.369 80.7223 58.8732C80.7121 58.3244 80.6585 57.773 80.5721 57.2606C80.2749 57.6598 79.99 58.103 79.7405 58.5655C79.4291 59.1423 79.1915 59.7154 79.0474 60.2424H77.3037C77.4749 59.3979 77.8271 58.5377 78.2469 57.7597C78.8456 56.6502 79.6357 55.6072 80.4143 54.8873L81.3372 54.0336Z" fill="#545454"/>
<path d="M90.6182 53.4546C92.3151 54.303 93.1635 57.697 92.3151 61.0909" stroke="#545454" stroke-width="0.909091"/>
<path d="M70.2544 91.6363C72.8 88.2424 75.3454 86.5454 79.5877 85.697" stroke="#545454" stroke-width="0.909091"/>
<path d="M88.9209 85.697C92.3149 89.9394 95.7089 92.4849 103.345 90.7879" stroke="#545454" stroke-width="0.909091"/>
<mask id="mask0_74:109" style="mask-type:alpha" maskUnits="userSpaceOnUse" x="7" y="9" width="67" height="57">
<path fill-rule="evenodd" clip-rule="evenodd" d="M14.2544 29.697C14.2544 18.4504 23.3715 9.33333 34.6182 9.33333H46.4969C57.7433 9.33333 66.8605 18.4504 66.8605 29.697V39.0256C70.6786 39.4352 73.6483 42.5772 73.6483 46.3921C73.6483 49.7724 71.3168 52.6243 68.1295 53.5153C68.4074 54.3853 68.5575 55.3123 68.5575 56.2746C68.5575 61.2776 64.5016 65.3333 59.4986 65.3333H21.6163C16.6132 65.3333 12.5575 61.2776 12.5575 56.2746C12.5575 55.3123 12.7075 54.3853 12.9854 53.5153C9.79806 52.6243 7.46655 49.7724 7.46655 46.3921C7.46655 42.5772 10.4363 39.4352 14.2544 39.0256V29.697Z" fill="white"/>
</mask>
<g mask="url(#mask0_74:109)">
<path d="M66.8605 39.0257H65.1635V40.5502L66.6794 40.7129L66.8605 39.0257ZM68.1294 53.5153L67.6727 51.881L65.9773 52.3548L66.5129 54.0316L68.1294 53.5153ZM12.9853 53.5153L14.6018 54.0316L15.1375 52.3548L13.4422 51.881L12.9853 53.5153ZM14.2544 39.0257L14.4354 40.7129L15.9513 40.5502V39.0257H14.2544ZM34.6181 7.63636C22.4344 7.63636 12.5574 17.5132 12.5574 29.697H15.9513C15.9513 19.3876 24.3087 11.0303 34.6181 11.0303V7.63636ZM46.4968 7.63636H34.6181V11.0303H46.4968V7.63636ZM68.5575 29.697C68.5575 17.5132 58.6805 7.63636 46.4968 7.63636V11.0303C56.806 11.0303 65.1635 19.3876 65.1635 29.697H68.5575ZM68.5575 39.0257V29.697H65.1635V39.0257H68.5575ZM75.3452 46.3921C75.3452 41.6604 71.6716 37.8351 67.0415 37.3384L66.6794 40.7129C69.6855 41.0355 71.9514 43.4937 71.9514 46.3921H75.3452ZM68.5864 55.1495C72.458 54.0672 75.3452 50.5833 75.3452 46.3921H71.9514C71.9514 48.9615 70.1757 51.1812 67.6727 51.881L68.5864 55.1495ZM66.5129 54.0316C66.7382 54.7366 66.8605 55.4896 66.8605 56.2746H70.2544C70.2544 55.135 70.0765 54.0338 69.746 52.999L66.5129 54.0316ZM66.8605 56.2746C66.8605 60.3404 63.5645 63.6363 59.4985 63.6363V67.0303C65.4388 67.0303 70.2544 62.2149 70.2544 56.2746H66.8605ZM59.4985 63.6363H21.6162V67.0303H59.4985V63.6363ZM21.6162 63.6363C17.5504 63.6363 14.2544 60.3404 14.2544 56.2746H10.8604C10.8604 62.2149 15.676 67.0303 21.6162 67.0303V63.6363ZM14.2544 56.2746C14.2544 55.4896 14.3766 54.7366 14.6018 54.0316L11.3688 52.999C11.0382 54.0338 10.8604 55.135 10.8604 56.2746H14.2544ZM5.76953 46.3921C5.76953 50.5833 8.65685 54.0672 12.5285 55.1495L13.4422 51.881C10.9391 51.1812 9.16347 48.9615 9.16347 46.3921H5.76953ZM14.0733 37.3384C9.44311 37.8351 5.76953 41.6604 5.76953 46.3921H9.16347C9.16347 43.4937 11.4294 41.0355 14.4354 40.7129L14.0733 37.3384ZM12.5574 29.697V39.0257H15.9513V29.697H12.5574Z" fill="#545454"/>
<path d="M20.1941 37.3333C27.8304 39.8787 38.5608 37.816 40.5577 36.4849C43.9515 34.7879 46.4971 29.697 45.6485 21.212C47.3455 32.2424 50.7395 36.4849 53.2849 37.3333C55.1633 37.9594 60.0728 38.1817 60.9212 37.3333" stroke="#545454" stroke-width="0.909091"/>
<path d="M58.3751 38.1817C58.3751 43.867 56.4547 50.0653 53.2282 54.8262C49.9957 59.5963 45.556 62.7879 40.5541 62.7879V64.4849C46.3303 64.4849 51.2254 60.8067 54.633 55.7782C58.047 50.7407 60.0721 44.2118 60.0721 38.1817H58.3751ZM40.5541 62.7879C35.5643 62.7879 31.3409 59.6099 28.3214 54.8479C25.3056 50.092 23.5874 43.8876 23.5874 38.1817H21.8904C21.8904 44.1913 23.6908 50.714 26.8882 55.7566C30.0817 60.793 34.7661 64.4849 40.5541 64.4849V62.7879Z" fill="#545454"/>
</g>
<mask id="mask1_74:109" style="mask-type:alpha" maskUnits="userSpaceOnUse" x="9" y="63" width="63" height="38">
<path fill-rule="evenodd" clip-rule="evenodd" d="M48.1939 63.6363H32.9212V70.4243H21.0423C14.4819 70.4243 9.16357 75.7426 9.16357 82.303V100.97H71.9514V82.303C71.9514 75.7426 66.633 70.4243 60.0727 70.4243H48.1939V63.6363Z" fill="white"/>
</mask>
<g mask="url(#mask1_74:109)">
<path d="M32.9212 63.6363V61.9394H31.2242V63.6363H32.9212ZM48.1939 63.6363H49.8909V61.9394H48.1939V63.6363ZM32.9212 70.4243V72.1213H34.618V70.4243H32.9212ZM9.16352 100.97H7.46655V102.667H9.16352V100.97ZM71.9513 100.97V102.667H73.6483V100.97H71.9513ZM48.1939 70.4243H46.4969V72.1213H48.1939V70.4243ZM32.9212 65.3333H48.1939V61.9394H32.9212V65.3333ZM34.618 70.4243V63.6363H31.2242V70.4243H34.618ZM21.0423 72.1213H32.9212V68.7273H21.0423V72.1213ZM10.8605 82.303C10.8605 76.6797 15.419 72.1213 21.0423 72.1213V68.7273C13.5446 68.7273 7.46655 74.8054 7.46655 82.303H10.8605ZM10.8605 100.97V82.303H7.46655V100.97H10.8605ZM71.9513 99.2727H9.16352V102.667H71.9513V99.2727ZM70.2545 82.303V100.97H73.6483V82.303H70.2545ZM60.0726 72.1213C65.6959 72.1213 70.2545 76.6799 70.2545 82.303H73.6483C73.6483 74.8054 67.5703 68.7273 60.0726 68.7273V72.1213ZM48.1939 72.1213H60.0726V68.7273H48.1939V72.1213ZM46.4969 63.6363V70.4243H49.8909V63.6363H46.4969Z" fill="#545454"/>
<path d="M29.5276 70.4243V77.212C29.5276 79.0866 31.0471 80.606 32.9214 80.606H48.1943C50.0686 80.606 51.588 79.0866 51.588 77.212V70.4243" stroke="#545454" stroke-width="0.909091"/>
<path d="M60.073 72.1213V99.2727M21.0427 72.1213V99.2727V72.1213Z" stroke="#545454" stroke-width="0.909091"/>
<path d="M21.0427 89.9394H60.073" stroke="#545454" stroke-width="0.909091"/>
</g>
</svg>
